<?xml version="1.0"?>
<svg xmlns="http://www.w3.org/2000/svg"
  xmlns:xlink="http://www.w3.org/1999/xlink" version="1.1" baseProfile="full" 
  width="73.0mm" height="27.0mm" viewBox="-5.0 -5.0 730.0 270.0">
<!-- HorizontalRow (width = "720.0", height = "260.0") -->
<g transform="translate(360.0, 130.0)">


<g transform="translate(-260.0, -30.0) rotate(-90.0,0,0)">
<rect x="-100.0" y="-100.0" width="200.0" height="200.0"
style="fill: #ffffee; stroke: black; stroke-width: 2"
/>
<path d="M -86.6 -50.0 L 86.6 -50.0 L -86.6 50.0 z  M -62.2 -25.6 L -62.2 7.7  L -4.4 -25.6  z" 
    fill="blue" stroke="blue" stroke-width="0.0" />
    
</g>

<g transform="translate(-260.0, -30.0)">
<text x="0" y="160.0"
style="font-size: 50; text-anchor: middle; stroke: red; fill:red; ">A</text>
</g>



<g transform="translate(0.0, -30.0) rotate(-0.0,0,0)">
<rect x="-100.0" y="-100.0" width="200.0" height="200.0"
style="fill: #ffffee; stroke: black; stroke-width: 2"
/>
<path d="M -64 -48 L -56 52 L -32 52 L 60 -48 z" 
    fill="#990099" stroke="#990099" stroke-width="0.0" />
    
</g>

<g transform="translate(0.0, -30.0)">
<text x="0" y="160.0"
style="font-size: 50; text-anchor: middle; stroke: red; fill:red; ">B</text>
</g>



<g transform="translate(260.0, -30.0) rotate(-0.0,0,0)">
<rect x="-100.0" y="-100.0" width="200.0" height="200.0"
style="fill: #ffffee; stroke: black; stroke-width: 2"
/>
<path d="M 20 -52 L 20 44 L -52 -28 L 12 -4 z" 
    fill="#006600" stroke="#006600" stroke-width="0.0" />
    
</g>

<g transform="translate(260.0, -30.0)">
<text x="0" y="160.0"
style="font-size: 50; text-anchor: middle; stroke: red; fill:red; ">C</text>
</g>

</g><!-- HorizontalRow ends -->
</svg>