<?xml version="1.0"?>
<svg xmlns="http://www.w3.org/2000/svg"
  xmlns:xlink="http://www.w3.org/1999/xlink" version="1.1" baseProfile="full" 
  width="101.0mm" height="21.0mm" viewBox="-5.0 -5.0 1010.0 210.0">
<!-- HorizontalRow (width = "1000.0", height = "200.0") -->
<g transform="translate(500.0, 100.0)">


<g transform="translate(-400.0, 0.0) rotate(-0.0,0,0)">
<rect x="-100.0" y="-100.0" width="200.0" height="200.0"
style="fill: #ffffee; stroke: black; stroke-width: 2"
/>
<path d="M 64 0 L 20 -60 L -52 -36 L -52 36 L 20 60 z" 
    fill="#00ff00" stroke="#00ff00" stroke-width="0.0" />
    
</g>




<g transform="translate(-200.0, 0.0) rotate(-0.0,0,0)">
<rect x="-100.0" y="-100.0" width="200.0" height="200.0"
style="fill: #ffffee; stroke: black; stroke-width: 2"
/>
<path d="M -60 0 L 20 0 L 20 -20 L 60 0 L 20 20 L 20 0 z" 
    fill="black" stroke="black" stroke-width="3.0" />
    
</g>




<g transform="translate(0.0, 0.0) rotate(-0.0,0,0)">
<rect x="-100.0" y="-100.0" width="200.0" height="200.0"
style="fill: #ffffee; stroke: black; stroke-width: 2"
/>
<g transform="rotate(90,0,0)">

<path d="M 64 0 L 20 -60 L -52 -36 L -52 36 L 20 60 z" 
    fill="#00ff00" stroke="#00ff00" stroke-width="0.0" />



</g>
    
</g>




<g transform="translate(200.0, 0.0) rotate(-0.0,0,0)">
<rect x="-100.0" y="-100.0" width="200.0" height="200.0"
style="fill: #ffffee; stroke: black; stroke-width: 2"
/>
<path d="M -60 0 L 20 0 L 20 -20 L 60 0 L 20 20 L 20 0 z" 
    fill="black" stroke="black" stroke-width="3.0" />
    
</g>




<g transform="translate(400.0, 0.0) rotate(-0.0,0,0)">
<rect x="-100.0" y="-100.0" width="200.0" height="200.0"
style="fill: #ffffee; stroke: black; stroke-width: 2"
/>
<g transform="rotate(-45,0,0)">

<path d="M 64 0 L 20 -60 L -52 -36 L -52 36 L 20 60 z" 
    fill="#00ff00" stroke="#00ff00" stroke-width="0.0" />



</g>
    
</g>


</g><!-- HorizontalRow ends -->
</svg>