<?xml version="1.0"?>
<svg xmlns="http://www.w3.org/2000/svg"
  xmlns:xlink="http://www.w3.org/1999/xlink" version="1.1" baseProfile="full" 
  width="89.0mm" height="21.0mm" viewBox="-5.0 -5.0 890.0 210.0">
<!-- HorizontalRow (width = "880.0", height = "200.0") -->
<g transform="translate(440.0, 100.0)">


<g transform="translate(-340.0, 0.0) rotate(-0.0,0,0)">
<rect x="-100.0" y="-100.0" width="200.0" height="200.0"
style="fill: #ffffee; stroke: black; stroke-width: 2"
/>
<g transform="rotate(-180,0,0)">

<path d="M -60 -60 L -60 60 L 60 60 z" 
    fill="blue" stroke="blue" stroke-width="0.0" />



</g>
    
</g>




<g transform="translate(-170.0, 0.0) rotate(-0.0,0,0)">
<rect x="-70.0" y="-70.0" width="140.0" height="140.0"
style="fill: none; stroke: none;"      
/>
<path d="M -60 0 L 20 0 L 20 -20 L 60 0 L 20 20 L 20 0 z" 
    fill="black" stroke="black" stroke-width="3.0" />
    
</g>




<g transform="translate(0.0, 0.0) rotate(-0.0,0,0)">
<rect x="-100.0" y="-100.0" width="200.0" height="200.0"
style="fill: #ffffee; stroke: black; stroke-width: 2"
/>
<g transform="rotate(-90,0,0)">

<path d="M -60 -60 L -60 60 L 60 60 z" 
    fill="blue" stroke="blue" stroke-width="0.0" />



</g>
    
</g>




<g transform="translate(170.0, 0.0) rotate(-0.0,0,0)">
<rect x="-70.0" y="-70.0" width="140.0" height="140.0"
style="fill: none; stroke: none;"      
/>
<path d="M -60 0 L 20 0 L 20 -20 L 60 0 L 20 20 L 20 0 z" 
    fill="black" stroke="black" stroke-width="3.0" />
    
</g>




<g transform="translate(340.0, 0.0) rotate(-0.0,0,0)">
<rect x="-100.0" y="-100.0" width="200.0" height="200.0"
style="fill: #ffffee; stroke: black; stroke-width: 2"
/>
<g transform="rotate(135,0,0)">

<path d="M -60 -60 L -60 60 L 60 60 z" 
    fill="blue" stroke="blue" stroke-width="0.0" />



</g>
    
</g>


</g><!-- HorizontalRow ends -->
</svg>